<?xml version="1.0" encoding="UTF-8"?>
<svg version="1.1" xmlns="http://www.w3.org/2000/svg" width="512" height="512">
<path d="M0 0 C6.98044705 6.50206676 13.15671469 13.46626593 19 21 C19.41862305 21.53157715 19.83724609 22.0631543 20.26855469 22.61083984 C38.52837542 45.92628923 51.35187258 73.15112427 58 102 C58.20882813 102.88510254 58.41765625 103.77020508 58.6328125 104.68212891 C64.84253897 132.28691768 64.82226905 164.52653816 58 192 C57.77505859 192.91072266 57.55011719 193.82144531 57.31835938 194.75976562 C55.75399292 200.90949273 53.96758381 206.96783532 52 213 C51.77086914 213.70527832 51.54173828 214.41055664 51.30566406 215.13720703 C42.64800376 241.16673289 27.45569372 267.66705028 7.40625 286.62890625 C5.82307989 288.10926901 5.82307989 288.10926901 4.0625 290.5 C1.07800499 294.1175697 -2.42486676 296.97942539 -6 300 C-6.84304688 300.7425 -7.68609375 301.485 -8.5546875 302.25 C-34.04526717 324.28063949 -64.37898616 338.74300208 -97.125 346.1875 C-97.80449707 346.34250977 -98.48399414 346.49751953 -99.18408203 346.65722656 C-101.44994566 347.14699883 -103.71948479 347.58346349 -106 348 C-107.47231079 348.26925293 -107.47231079 348.26925293 -108.97436523 348.54394531 C-119.25501318 350.22321544 -129.41593666 350.39966436 -139.8125 350.375 C-141.16769241 350.37368576 -141.16769241 350.37368576 -142.55026245 350.37234497 C-157.33754584 350.32515968 -171.56928856 349.47004679 -186 346 C-186.98629395 345.76394043 -187.97258789 345.52788086 -188.98876953 345.28466797 C-215.983651 338.57380707 -240.84621436 326.74509322 -263 310 C-264.30517578 309.01580078 -264.30517578 309.01580078 -265.63671875 308.01171875 C-286.54359361 291.75081608 -303.90974823 272.0407978 -317 249 C-317.3904248 248.31486328 -317.78084961 247.62972656 -318.18310547 246.92382812 C-331.40464778 223.44410362 -340.03239399 197.8626154 -343 171 C-343.10957031 170.13246094 -343.21914063 169.26492188 -343.33203125 168.37109375 C-348.84487845 116.69733934 -333.61365664 62.66642937 -301.17553711 22.01171875 C-296.35906217 16.1118541 -291.25873003 10.50628794 -286 5 C-285.12730469 4.07445312 -284.25460937 3.14890625 -283.35546875 2.1953125 C-276.43537848 -4.95781156 -269.01186063 -11.13026702 -261 -17 C-260.43361816 -17.41604492 -259.86723633 -17.83208984 -259.28369141 -18.26074219 C-231.10248089 -38.65472007 -198.32064951 -50.57446433 -164 -55 C-162.99324219 -55.13277344 -161.98648438 -55.26554687 -160.94921875 -55.40234375 C-101.16603847 -61.7180777 -44.00694415 -39.73532967 0 0 Z M-130 -33 C-130 -5.28 -130 22.44 -130 51 C-117.46 51.99 -104.92 52.98 -92 54 C-51.40805771 59.58327831 -6.94387949 67.83701844 26.9609375 92.57421875 C29.03852585 94.17088478 29.03852585 94.17088478 32 95 C30.83237566 88.72792657 29.04262677 83.16236097 26.375 77.375 C26.02018555 76.59648682 25.66537109 75.81797363 25.29980469 75.01586914 C4.81973482 30.61069554 -30.69354561 -4.7699583 -76.7890625 -22.1484375 C-93.98618559 -28.38134286 -111.6346184 -33 -130 -33 Z M-270.6875 21.375 C-290.10902346 40.96550761 -306.9469707 67.12552629 -314 94 C-313.67 94.66 -313.34 95.32 -313 96 C-312.46375 95.59910156 -311.9275 95.19820312 -311.375 94.78515625 C-265.46176419 61.48295725 -206.68206655 55.43368107 -152 51 C-152 23.28 -152 -4.44 -152 -33 C-196.98616883 -33 -239.35215685 -9.41223012 -270.6875 21.375 Z M-307.8515625 119.78515625 C-315.66645014 127.84159496 -321.1153241 135.47167632 -321.5 146.9375 C-321.03725609 160.0065097 -314.80635506 168.61710557 -305.42578125 177.4140625 C-254.10662686 221.01661411 -171.87315291 225.77918822 -107.61669922 220.734375 C-60.38253223 216.68668317 -0.81305588 207.12620193 32 169 C38.13127931 160.38822387 41.13447903 152.6466494 40 142 C36.20758823 126.3503008 23.35480593 115.22309272 10.30078125 106.95703125 C-20.99661197 87.94569288 -57.62744392 79.40656865 -93.6875 75.25 C-94.68185059 75.13430664 -95.67620117 75.01861328 -96.70068359 74.89941406 C-107.76549044 73.73804177 -118.88731177 73.42086552 -130 73 C-130.07593214 80.77784995 -130.12855012 88.55560468 -130.16479492 96.33374023 C-130.1799012 98.98091199 -130.2003873 101.62805864 -130.22631836 104.27514648 C-130.26261991 108.07542101 -130.27970803 111.87536526 -130.29296875 115.67578125 C-130.30845261 116.86335526 -130.32393646 118.05092926 -130.33988953 119.27449036 C-130.34011612 120.37540512 -130.34034271 121.47631989 -130.34057617 122.6105957 C-130.34723801 123.58100296 -130.35389984 124.55141022 -130.36076355 125.55122375 C-130.1936024 128.05202228 -130.1936024 128.05202228 -128.60371399 129.83683777 C-127.06035443 131.19570764 -127.06035443 131.19570764 -125 131 C-124.31225595 132.32258472 -123.65288627 133.65986503 -123 135 C-122.195625 136.5159375 -122.195625 136.5159375 -121.375 138.0625 C-119.08328762 143.53910497 -118.99444706 149.64247579 -120.69140625 155.30859375 C-123.19773566 160.85607599 -126.80146165 164.50629315 -132.3671875 167.10546875 C-138.86276872 169.31242439 -145.25078003 168.72125726 -151.4375 165.875 C-156.76661271 162.89746401 -159.06207722 159.81376833 -161 154 C-161.62825926 146.47118817 -161.96705795 139.13410308 -157 133 C-156.15695313 132.56598877 -155.31390625 132.13197754 -154.4453125 131.68481445 C-150.39928324 127.24250377 -151.38779462 122.14243673 -151.51171875 116.359375 C-151.51879349 115.12205627 -151.52586823 113.88473755 -151.53315735 112.60992432 C-151.55639826 109.32802274 -151.60128045 106.04735569 -151.65667725 102.76586914 C-151.7079223 99.41434099 -151.73025575 96.06275978 -151.75585938 92.7109375 C-151.81100265 86.14014237 -151.89468735 79.57017214 -152 73 C-203.54156512 72.77280256 -268.92049585 82.98818462 -307.8515625 119.78515625 Z M31 199 C30.40316406 199.47308594 29.80632812 199.94617188 29.19140625 200.43359375 C-30.8160773 246.17481078 -124.66905797 249.01258919 -196.56152344 239.73388672 C-218.45147715 236.7083715 -240.13680686 232.36261891 -261 225 C-261.67353516 224.76845215 -262.34707031 224.5369043 -263.04101562 224.29833984 C-278.67056444 218.89952539 -293.62669924 212.06821593 -307.3125 202.75 C-309.93458497 200.88143125 -309.93458497 200.88143125 -313 200 C-311.69722185 206.73102044 -309.73090386 212.71950968 -307 219 C-306.60554688 219.91064209 -306.21109375 220.82128418 -305.8046875 221.75952148 C-293.18122602 250.20448726 -272.76446557 274.3914635 -248 293 C-247.15566406 293.639375 -246.31132812 294.27875 -245.44140625 294.9375 C-225.96142912 309.12864691 -203.24683875 318.93129791 -179.8125 324.25 C-179.14951904 324.40106201 -178.48653809 324.55212402 -177.8034668 324.70776367 C-165.55344387 327.31480852 -153.32177578 328.36706005 -140.8125 328.3125 C-140.14190552 328.31067719 -139.47131104 328.30885437 -138.78039551 328.30697632 C-127.29933798 328.25477733 -116.22364725 327.46396197 -105 325 C-104.21802246 324.82839355 -103.43604492 324.65678711 -102.63037109 324.47998047 C-65.08637376 315.9323237 -28.64098116 296.10006032 -4 266 C-3.10953549 264.95689423 -2.21889489 263.91393875 -1.328125 262.87109375 C13.28266452 245.48613419 26.13267245 224.12471431 32 202 C31.67 201.01 31.34 200.02 31 199 Z " fill="#000000" transform="translate(386,98)"/>
</svg>
